<svg xmlns="http://www.w3.org/2000/svg" width="1440" height="372" fill="none" viewBox="0 0 1440 372"><path fill="url(#paint0_linear_1624_2230)" fill-opacity=".15" fill-rule="evenodd" d="M705.564 371.773V342.574H679.663V228.946L645.642 228.946V263.939H627.725V272.391L588.531 263.939H578.929V284.96L532.034 315.427L485.14 284.96V213.474H463.127V199.582H430.646V256.278H403.727L404.848 279.802H373.696V286.54H342.133L337.276 327.283L332.421 286.54H326.35V279.802H318.158L321.16 216.802H315.346V244.597L250.084 263.939V228.946L184.821 228.946V256.278H144.535V272.391L75.5256 247.938V272.391L-17 239.605L-17 -6.10352e-05H52.0068H75.5256H141.595H144.535H184.821H250.084H315.346H328.871H387.417H394.133H426.871L430.646 -6.10352e-05H485.14H520.66H578.929H645.642H679.663H737.326H761.976H819.795H835.472H888.566H917.476H964.176H981.095H1005.18H1046.18H1056.71H1097.71H1119.83H1138.71H1212.36H1242.87H1282.56L1322.25 -6.10352e-05H1352.8H1361.93H1406.26H1418.06H1458V233.514H1426.57L1428.77 279.802H1361.93V346.807H1322.25V332.564H1282.56V319.524L1242.87 319.524V252.293H1212.36V283.551L1201.49 283.551V286.998H1130.7V283.551H1119.83V218.372H1097.71V302.141H1086.84V305.588H1016.05V302.141H1005.18V253.903H981.095V283.551H970.227V286.998H899.438V283.551H888.566V272.391L865.851 260.113V239.528H835.472V252.293H819.795V283.551H761.976V302.057L737.326 312.612V342.574H711.422V371.773H705.564Z" clip-rule="evenodd"/><defs><linearGradient id="paint0_linear_1624_2230" x1="720.5" x2="720.5" y1="0" y2="371.773" gradientUnits="userSpaceOnUse"><stop stop-color="#FECF08"/><stop offset="1" stop-color="#7D7C77"/></linearGradient></defs></svg>