<svg xmlns="http://www.w3.org/2000/svg" width="1440" height="481" fill="none" viewBox="0 0 1440 481"><path fill="#FECF08" fill-opacity=".15" fill-rule="evenodd" d="M717.436 0.17749V37.9417H743.337V184.899H777.358V139.642H795.275V128.711L834.469 139.642H844.071V112.455L890.966 73.0508L937.86 112.455V204.909H959.873V222.876H992.354V149.549H1019.27L1018.15 119.125H1049.3V110.412H1080.87L1085.72 57.7178L1090.58 110.412H1096.65V119.125H1104.84L1101.84 200.605H1107.65V164.658L1172.92 139.642V184.899H1238.18V149.549H1278.47V128.711L1347.47 160.336V128.711L1440 171.114V481H1370.99H1347.47H1281.41H1278.47H1238.18H1172.92H1107.65H1094.13H1035.58H1028.87H996.129H992.354H937.86H902.34H844.071H777.358H743.337H685.674H661.024H603.205H587.528H534.434H505.524H458.824H441.905H417.821H376.821H366.294H325.293H303.167H284.29H210.644H180.131H140.445H100.754H70.1993H61.068H16.7404H4.93811H-35V178.991H-3.57141L-5.77466 119.125H61.068V32.4667H100.754V50.8876H140.445V67.7529H180.131V154.704H210.644V114.277H221.509V109.819H292.3V114.277H303.167V198.575H325.293V90.235H336.163V85.7765H406.952V90.235H417.821V152.622H441.905V114.277H452.773V109.819H523.562V114.277H534.434V128.711L557.149 144.59V171.214H587.528V154.704H603.205V114.277H661.024V90.3428L685.674 76.6916V37.9417H711.578V0.17749H717.436Z" clip-rule="evenodd"/></svg>